<?xml version="1.0" encoding="utf-8"?>
<!-- Generator: Adobe Illustrator 23.0.2, SVG Export Plug-In . SVG Version: 6.00 Build 0)  -->
<svg version="1.1" id="Layer_1" xmlns="http://www.w3.org/2000/svg" xmlns:xlink="http://www.w3.org/1999/xlink" x="0px" y="0px"
	 viewBox="0 0 512 512" style="enable-background:new 0 0 512 512;" xml:space="preserve">
<path d="M372,199.9c0,7.7,6.3,14,14,14c9.9,0,18,8.1,18,18l0,186c0,9.9-8.1,18-18,18l-260,0c-9.9,0-18-8.1-18-18v-186
	c0-9.9,8.1-18,18-18c7.7,0,14-6.3,14-14s-6.3-14-14-14c-25.4,0-46,20.6-46,46v186c0,25.4,20.6,46,46,46l260,0c25.4,0,46-20.6,46-46
	l0-186c0-25.4-20.6-46-46-46C378.2,185.9,372,192.2,372,199.9z"/>
<path d="M158.1,139.1c-2.6,2.6-4.1,6.1-4.1,9.9c0,3.7,1.4,7.3,4.1,9.9c5.5,5.5,14.3,5.5,19.8,0l64.2-65.2v256.3c0,7.7,6.3,14,14,14
	c7.7,0,14-6.3,14-14l0-256.6l64.1,63.6c5.4,5.4,14.3,5.4,19.8,0l0.1-0.1c2.5-2.7,3.9-6.2,3.9-9.8c0-3.8-1.4-7.3-4.1-9.9l-82.4-82.6
	c-4.3-4.3-9.3-6.5-14.7-6.5c-5.3,0-10.3,2.3-14.5,6.5L158.1,139.1L158.1,139.1z"/>
</svg>
